<?xml version="1.0" encoding="iso-8859-1"?>
<!-- Generator: Adobe Illustrator 19.0.0, SVG Export Plug-In . SVG Version: 6.00 Build 0)  -->
<svg version="1.1" id="Capa_1" xmlns="http://www.w3.org/2000/svg" xmlns:xlink="http://www.w3.org/1999/xlink" x="0px" y="0px"
	 viewBox="0 0 480.02 480.02" style="enable-background:new 0 0 480.02 480.02;" xml:space="preserve">
<path style="fill:#4398D1;" d="M400.013,168.02C400.117,79.655,328.567,7.936,240.201,7.832S80.117,79.278,80.013,167.644
	c-0.059,50.191,23.437,97.501,63.464,127.784c25.122,18.399,40.135,47.536,40.536,78.672v1.92h112v-1.944
	c0.093-30.724,14.724-59.591,39.448-77.832C376.096,266.158,400.048,218.58,400.013,168.02z"/>
<path style="fill:#DEDEDE;" d="M184.013,376.02h112l0,0v48c0,8.837-7.163,16-16,16h-80c-8.837,0-16-7.163-16-16V376.02
	L184.013,376.02z"/>
<path style="fill:#CFCFCF;" d="M264.013,376.02v48c0,8.837-7.163,16-16,16h32c8.837,0,16-7.163,16-16v-48H264.013z"/>
<g>
	<path style="fill:#BABABA;" d="M184.013,400.02h112v16h-112V400.02z"/>
	<path style="fill:#BABABA;" d="M216.013,440.02h48l0,0v8c0,13.255-10.745,24-24,24l0,0c-13.255,0-24-10.745-24-24l0,0V440.02
		L216.013,440.02z"/>
</g>
<path style="fill:#3E8CC7;" d="M355.653,57.452c-26.536,137.44-132.12,207.32-207.736,241.768
	c22.502,18.403,35.715,45.814,36.096,74.88v1.92h112v-1.944c0.093-30.724,14.724-59.591,39.448-77.832
	c70.86-52.596,85.665-152.676,33.069-223.536C364.56,67.359,360.259,62.264,355.653,57.452L355.653,57.452z"/>
<g>
	<path style="fill:#88B337;" d="M168.013,224.02l24,8v32l40,16v-88h-64V224.02z"/>
	<path style="fill:#88B337;" d="M224.013,144.02v-40l-32-32v24h-32V29.852c-34.308,20.209-60.024,52.286-72.288,90.168h40.288v40
		l40,32v-48H224.013z"/>
	<path style="fill:#88B337;" d="M240.013,8.02v56l32,24l54.552-54.552C300.772,16.817,270.714,7.98,240.013,8.02z"/>
	<path style="fill:#88B337;" d="M399.805,160.02h-31.792v-72h-40l-32,40l24,24v64h32l47.8-55.76L399.805,160.02z"/>
</g>
<path d="M407.477,157.34c-5.678-92.003-84.562-162.168-176.6-157.08C140.976,5.842,71.172,80.814,72.013,170.884
	c0.755,51.594,25.349,99.933,66.608,130.92c23.178,16.845,37.04,43.646,37.392,72.296v49.92c0,13.255,10.745,24,24,24l0,0h8
	c0,17.673,14.327,32,32,32s32-14.327,32-32h8c13.255,0,24-10.745,24-24l0,0v-49.944c0.173-28.177,13.592-54.631,36.224-71.416
	c42.796-31.482,67.98-81.512,67.776-134.64c0-2.056-0.232-4.056-0.304-6.096C408.085,160.407,408.004,158.812,407.477,157.34
	L407.477,157.34z M325.669,146.364l-18.936-18.936l25.12-31.408h28.16v64c0,4.418,3.582,8,8,8h14.608l-34.288,40h-20.32v-56
	C328.013,149.899,327.17,147.864,325.669,146.364L325.669,146.364z M376.013,152.02v-51.712c8.148,16.178,13.298,33.698,15.2,51.712
	H376.013z M313.613,35.132L271.261,77.46l-23.248-17.44V16.236C271.043,17.401,293.493,23.868,313.613,35.132L313.613,35.132z
	 M152.013,44.62v51.4c0,4.418,3.582,8,8,8h32c4.418,0,8-3.582,8-8v-4.688l16,16v28.688h-48c-4.418,0-8,3.582-8,8v31.352l-24-19.2
	V120.02c0-4.418-3.582-8-8-8H99.021C110.006,85.023,128.371,61.665,152.013,44.62L152.013,44.62z M194.541,224.428l-18.528-6.176
	V200.02h48v68.184l-24-9.6V232.02C200.014,228.575,197.81,225.517,194.541,224.428z M288.013,400.02h-96v-16h96V400.02z
	 M240.013,464.02c-8.837,0-16-7.163-16-16h32C256.013,456.857,248.85,464.02,240.013,464.02z M280.013,432.02h-80
	c-4.418,0-8-3.582-8-8v-8h96v8C288.013,428.438,284.431,432.02,280.013,432.02z M330.693,289.828
	c-24.976,18.546-40.523,47.146-42.504,78.192h-96.352c-2.186-31.448-18.112-60.338-43.536-78.976
	c-37.335-28.021-59.596-71.748-60.288-118.424c-0.208-14.396,1.679-28.746,5.6-42.6h26.4v32c-0.001,2.43,1.103,4.729,3,6.248
	l37,29.592v28.16c-0.001,3.445,2.204,6.503,5.472,7.592l18.528,6.176v26.232c-0.003,3.272,1.987,6.215,5.024,7.432l40,16
	c4.101,1.644,8.758-0.349,10.402-4.45c0.38-0.948,0.575-1.961,0.574-2.982v-88c0-4.418-3.582-8-8-8h-56v-32h48c4.418,0,8-3.582,8-8
	v-40c0-2.122-0.844-4.156-2.344-5.656l-32-32c-3.125-3.124-8.19-3.123-11.314,0.002c-1.499,1.5-2.342,3.534-2.342,5.654v16h-16
	v-53.4c19.58-10.856,41.359-17.146,63.712-18.4h0.288v47.8c0,2.518,1.186,4.889,3.2,6.4l32,24c3.185,2.388,7.641,2.071,10.456-0.744
	l49.8-49.8c14.192,9.803,26.537,22.039,36.464,36.144h-35.92c-2.43-0.001-4.729,1.103-6.248,3l-32,40
	c-2.547,3.184-2.292,7.774,0.592,10.656l21.656,21.656v60.688c0,4.418,3.582,8,8,8h32c2.334,0,4.552-1.02,6.072-2.792l33.192-38.72
	C387.339,225.293,365.29,264.351,330.693,289.828L330.693,289.828z"/>
<g>
</g>
<g>
</g>
<g>
</g>
<g>
</g>
<g>
</g>
<g>
</g>
<g>
</g>
<g>
</g>
<g>
</g>
<g>
</g>
<g>
</g>
<g>
</g>
<g>
</g>
<g>
</g>
<g>
</g>
</svg>
